<svg width="16" height="16" viewBox="0 0 16 16" fill="none" xmlns="http://www.w3.org/2000/svg">
<g id="Frame" clip-path="url(#clip0_1_387)">
<path id="Vector" fill-rule="evenodd" clip-rule="evenodd" d="M8 0C3.58233 0 0 3.67233 0 8.20233C0 11.8267 2.29233 14.9013 5.471 15.9857C5.871 16.0617 6.01767 15.808 6.01767 15.5913C6.01767 15.3957 6.01 14.7497 6.00667 14.0643C3.781 14.5603 3.31133 13.0963 3.31133 13.0963C2.94733 12.1483 2.423 11.8963 2.423 11.8963C1.69733 11.387 2.478 11.3977 2.478 11.3977C3.28133 11.4553 3.70433 12.2427 3.70433 12.2427C4.41767 13.4967 5.57567 13.1343 6.03233 12.9247C6.104 12.3947 6.31133 12.0327 6.54 11.828C4.76333 11.6203 2.89533 10.917 2.89533 7.774C2.89533 6.87867 3.20767 6.14667 3.71967 5.57233C3.63633 5.36567 3.36267 4.53133 3.797 3.40167C3.797 3.40167 4.469 3.18133 5.99767 4.24233C6.63567 4.06067 7.32033 3.96967 8 3.96633C8.68 3.96967 9.365 4.06067 10.0043 4.24233C11.531 3.18133 12.202 3.40167 12.202 3.40167C12.6373 4.53167 12.3633 5.36567 12.2803 5.57233C12.7937 6.14667 13.1037 6.87867 13.1037 7.774C13.1037 10.9247 11.2323 11.6183 9.45067 11.8213C9.73767 12.076 9.99333 12.575 9.99333 13.3403C9.99333 14.4377 9.98433 15.321 9.98433 15.5913C9.98433 15.8097 10.1283 16.0653 10.5337 15.9847C13.7107 14.899 16 11.8253 16 8.20233C16 3.67233 12.4183 0 8 0Z" fill="black"/>
<path id="Vector_2" fill-rule="evenodd" clip-rule="evenodd" d="M3.02993 11.7768C3.01227 11.8178 2.94993 11.8298 2.89293 11.8018C2.83493 11.7751 2.80227 11.7195 2.82093 11.6785C2.83827 11.6365 2.90093 11.6251 2.95893 11.6528C3.01693 11.6798 3.04993 11.7361 3.02993 11.7768ZM3.35393 12.1475C3.31593 12.1835 3.24127 12.1668 3.1906 12.1095C3.13827 12.0521 3.1286 11.9758 3.16727 11.9391C3.2066 11.9025 3.27893 11.9198 3.33127 11.9768C3.3836 12.0348 3.39393 12.1108 3.35393 12.1475ZM3.66927 12.6198C3.6206 12.6548 3.54027 12.6221 3.4906 12.5491C3.4416 12.4758 3.4416 12.3885 3.49193 12.3535C3.5416 12.3185 3.62027 12.3501 3.6706 12.4225C3.7196 12.4965 3.7196 12.5841 3.66927 12.6198ZM4.1016 13.0765C4.0576 13.1258 3.96427 13.1125 3.89593 13.0448C3.82593 12.9788 3.8066 12.8848 3.8506 12.8351C3.89493 12.7855 3.98893 12.7995 4.0576 12.8665C4.12727 12.9325 4.14827 13.0271 4.1016 13.0765ZM4.6976 13.3411C4.67827 13.4055 4.58827 13.4345 4.4976 13.4075C4.4076 13.3791 4.34827 13.3041 4.36627 13.2391C4.38527 13.1745 4.4756 13.1438 4.56693 13.1731C4.65693 13.2011 4.7166 13.2758 4.6976 13.3411ZM5.3526 13.3905C5.3546 13.4581 5.27793 13.5138 5.1826 13.5151C5.08693 13.5175 5.0096 13.4628 5.0086 13.3961C5.0086 13.3278 5.08393 13.2725 5.17927 13.2708C5.2746 13.2688 5.3526 13.3231 5.3526 13.3905ZM5.9616 13.2841C5.97293 13.3501 5.90693 13.4178 5.8126 13.4358C5.7196 13.4531 5.6336 13.4125 5.62193 13.3471C5.61027 13.2795 5.6776 13.2115 5.77027 13.1938C5.86493 13.1771 5.9496 13.2175 5.9616 13.2841Z" fill="black"/>
</g>
<defs>
<clipPath id="clip0_1_387">
<rect width="16" height="16" fill="white"/>
</clipPath>
</defs>
</svg>
