<svg width="31" height="27" viewBox="0 0 31 27" fill="none" xmlns="http://www.w3.org/2000/svg">
<g id="Frame" clip-path="url(#clip0_1_370)">
<path id="Vector" d="M30.1791 21.2998L25.1711 26.6318C25.0631 26.7488 24.932 26.842 24.7859 26.9053C24.6399 26.9687 24.4822 27.0009 24.3231 26.9998H0.583068C0.46991 26.9992 0.359309 26.9661 0.264451 26.9044C0.169594 26.8427 0.0944808 26.755 0.0480677 26.6518C0.00252432 26.5488 -0.0113983 26.4347 0.0080677 26.3238C0.0279515 26.2124 0.0793066 26.109 0.156068 26.0258L5.15807 20.6938C5.26592 20.5767 5.39709 20.4834 5.54313 20.4201C5.68918 20.3567 5.84687 20.3246 6.00607 20.3258H29.7461C29.8598 20.3227 29.972 20.3535 30.0682 20.4143C30.1645 20.4751 30.2405 20.5631 30.2865 20.6672C30.3326 20.7712 30.3467 20.8867 30.3271 20.9988C30.3074 21.1109 30.2548 21.2146 30.1761 21.2968L30.1791 21.2998ZM25.1701 10.5598C25.0603 10.4451 24.9288 10.3534 24.7832 10.2902C24.6376 10.227 24.4808 10.1936 24.3221 10.1918H0.583068C0.4698 10.1925 0.359121 10.2257 0.264252 10.2876C0.169383 10.3495 0.0943336 10.4374 0.0480677 10.5408C0.00258294 10.6438 -0.0113375 10.7579 0.0080677 10.8688C0.0280677 10.9808 0.0790677 11.0818 0.156068 11.1658L5.15807 16.5008C5.26507 16.6158 5.39807 16.7088 5.54207 16.7708C5.68907 16.8348 5.84507 16.8658 6.00607 16.8688H29.7461C29.8587 16.8691 29.9688 16.8362 30.0629 16.7743C30.157 16.7125 30.2307 16.6243 30.2751 16.5208C30.3207 16.4179 30.3348 16.3038 30.3156 16.1929C30.2963 16.082 30.2447 15.9793 30.1671 15.8978L25.1671 10.5628L25.1701 10.5598ZM0.582068 6.72979H24.3221C24.4816 6.72895 24.6393 6.69631 24.7861 6.63379C24.9331 6.56979 25.0631 6.47979 25.1701 6.36179L30.1801 1.02979C30.2379 0.968025 30.2815 0.894341 30.3077 0.813923C30.334 0.733506 30.3423 0.648308 30.3321 0.564326C30.3219 0.480344 30.2934 0.399617 30.2487 0.327825C30.2039 0.256034 30.144 0.194922 30.0731 0.148791C29.9768 0.0871422 29.8643 0.0557901 29.7501 0.0587907H6.00607C5.84807 0.0587907 5.68907 0.0927907 5.54207 0.153791C5.39625 0.216693 5.26538 0.30973 5.15807 0.426791L0.156068 5.75879C0.0795477 5.84136 0.0286173 5.94435 0.00944827 6.05529C-0.00972079 6.16622 0.00369421 6.28033 0.0480677 6.38379C0.0944101 6.48684 0.169368 6.57442 0.264031 6.63611C0.358694 6.6978 0.46908 6.73101 0.582068 6.73179V6.72979Z" fill="url(#paint0_linear_1_370)"/>
</g>
<defs>
<linearGradient id="paint0_linear_1_370" x1="2.56107" y1="27.6418" x2="27.2581" y2="-0.397209" gradientUnits="userSpaceOnUse">
<stop offset="0.08" stop-color="#9945FF"/>
<stop offset="0.3" stop-color="#8752F3"/>
<stop offset="0.5" stop-color="#5497D5"/>
<stop offset="0.6" stop-color="#43B4CA"/>
<stop offset="0.72" stop-color="#28E0B9"/>
<stop offset="0.97" stop-color="#19FB9B"/>
</linearGradient>
<clipPath id="clip0_1_370">
<rect width="31" height="27" fill="white"/>
</clipPath>
</defs>
</svg>
