<svg width="16" height="16" viewBox="0 0 16 16" fill="none" xmlns="http://www.w3.org/2000/svg">
<g id="Frame">
<path id="Vector" d="M14.9694 8.02704C14.969 7.60133 14.7997 7.19319 14.4986 6.89217C14.1976 6.59115 13.7895 6.42184 13.3638 6.42139C12.9739 6.42093 12.5975 6.5634 12.3056 6.82182C11.2437 6.14231 9.82685 5.71423 8.2641 5.66795L9.22043 2.39741L11.5682 2.83367C11.5682 2.85286 11.5643 2.87092 11.5654 2.89011C11.5794 3.15874 11.6994 3.41085 11.8991 3.59114C12.0987 3.77143 12.3617 3.86517 12.6304 3.8518C12.899 3.83771 13.151 3.71769 13.3312 3.51805C13.5115 3.31841 13.6052 3.05545 13.5918 2.78683C13.5778 2.51819 13.4578 2.26608 13.2581 2.08579C13.0585 1.90551 12.7955 1.81176 12.5268 1.82513C12.3557 1.83424 12.1896 1.88666 12.0443 1.97748C11.8989 2.06829 11.779 2.19453 11.6958 2.34436L11.6949 2.34407L8.86572 1.81836L7.73895 5.66739C6.17225 5.70887 4.75087 6.13469 3.68449 6.81279C3.39385 6.55988 3.02143 6.42084 2.63616 6.42139C2.21048 6.42192 1.80238 6.59125 1.50138 6.89225C1.20037 7.19326 1.03104 7.60135 1.03052 8.02704C1.03052 8.57448 1.31242 9.07959 1.769 9.3742C1.74046 9.53537 1.72583 9.6987 1.72526 9.86238C1.72526 12.1797 4.53472 14.0653 7.98812 14.0653C11.4415 14.0653 14.2504 12.1797 14.2504 9.8621C14.2504 9.70182 14.2357 9.54379 14.2095 9.38802C14.4413 9.24435 14.6326 9.044 14.7655 8.80589C14.8984 8.56777 14.9688 8.29973 14.9694 8.02704ZM5.01161 9.11966C5.01165 8.99009 5.03721 8.8618 5.08682 8.74211C5.13644 8.62241 5.20915 8.51366 5.3008 8.42207C5.39245 8.33047 5.50124 8.25783 5.62096 8.20828C5.74068 8.15873 5.86899 8.13324 5.99856 8.13328C6.12813 8.13332 6.25643 8.15887 6.37612 8.20849C6.49581 8.25811 6.60456 8.33082 6.69616 8.42247C6.78775 8.51411 6.8604 8.6229 6.90995 8.74263C6.9595 8.86235 6.98498 8.99066 6.98494 9.12023C6.98487 9.38191 6.88085 9.63284 6.69576 9.81783C6.51067 10.0028 6.25968 10.1067 5.998 10.1066C5.73632 10.1065 5.48538 10.0025 5.3004 9.81743C5.11542 9.63234 5.01154 9.38135 5.01161 9.11966ZM10.3139 11.7886C10.2846 11.8191 9.57655 12.5395 7.97655 12.5395C6.36808 12.5395 5.7247 11.8092 5.69845 11.7781C5.65777 11.7272 5.6384 11.6624 5.64441 11.5975C5.65042 11.5326 5.68134 11.4725 5.73069 11.4299C5.78004 11.3872 5.84398 11.3654 5.9091 11.3688C5.97422 11.3723 6.03546 11.4009 6.07997 11.4486C6.09464 11.4644 6.63136 12.0352 7.97627 12.0352C9.34487 12.0352 9.9448 11.444 9.95101 11.4384C9.99842 11.3951 10.0606 11.3714 10.1248 11.3723C10.189 11.3731 10.2505 11.3984 10.2967 11.443C10.343 11.4876 10.3705 11.5481 10.3737 11.6122C10.3769 11.6764 10.3555 11.7396 10.3139 11.7886ZM10.1178 10.1065C9.98823 10.1065 9.85994 10.0811 9.74022 10.0315C9.62051 9.98201 9.51173 9.90939 9.42008 9.81783C9.32843 9.72626 9.25572 9.61753 9.20609 9.49787C9.15646 9.3782 9.13089 9.24992 9.13083 9.12037C9.13078 8.99082 9.15624 8.86252 9.20577 8.74281C9.25529 8.6231 9.32791 8.51431 9.41948 8.42267C9.51105 8.33102 9.61977 8.25831 9.73944 8.20868C9.85911 8.15905 9.98739 8.13348 10.1169 8.13342C10.3786 8.13331 10.6296 8.23714 10.8146 8.42207C10.9997 8.607 11.1038 8.85788 11.1039 9.11952C11.104 9.38117 11.0002 9.63214 10.8152 9.81723C10.6303 10.0023 10.3794 10.1064 10.1178 10.1065Z" fill="black"/>
</g>
</svg>
