<svg width="16" height="16" viewBox="0 0 16 16" fill="none" xmlns="http://www.w3.org/2000/svg">
<g id="Frame">
<path id="Vector" d="M5.35884 2.4458C4.85049 2.4458 3.31791 3.06753 3.04295 3.19178C2.76799 3.31603 2.4628 3.7039 2.1165 4.34405C1.76974 4.9842 1.49147 5.73254 1.03935 6.83332C0.587701 7.93409 0.482347 10.0563 0.497465 10.704C0.512583 11.3517 0.586756 11.8577 1.25053 12.2408C1.91383 12.6235 2.5006 13.0241 3.11807 13.2651C3.73602 13.506 4.15743 13.6794 4.44373 13.4384C4.73002 13.1975 4.91852 12.7756 4.91852 12.7756C4.91852 12.7756 5.1897 12.3991 4.67758 12.1733C4.16546 11.947 3.9094 11.7887 3.9316 11.5553C3.95428 11.3219 3.9916 11.1939 4.11963 11.2241C4.24766 11.2544 4.54955 11.7963 5.70938 12.0448C6.86921 12.2933 7.99975 12.2559 7.99975 12.2559C7.99975 12.2559 9.13077 12.2937 10.2906 12.0448C11.4504 11.7963 11.7518 11.2544 11.8799 11.2241C12.0079 11.1939 12.0452 11.3219 12.0679 11.5548C12.0906 11.7887 11.8345 11.947 11.3224 12.1733C10.8103 12.3991 11.0815 12.7756 11.0815 12.7756C11.0815 12.7756 11.27 13.197 11.5563 13.4384C11.8421 13.6794 12.264 13.506 12.8814 13.2651C13.4989 13.0241 14.0862 12.624 14.7495 12.2408C15.4132 11.8577 15.4874 11.3517 15.5025 10.704C15.5176 10.0567 15.4123 7.93409 14.9602 6.83332C14.5085 5.73254 14.2298 4.9842 13.883 4.34405C13.5372 3.7039 13.2315 3.31603 12.957 3.19131C12.6821 3.06753 11.149 2.4458 10.6407 2.4458C10.1323 2.4458 9.9821 2.80013 9.9821 2.80013L9.80493 3.19178C9.80493 3.19178 8.61439 2.96548 8.00779 2.96501C7.40118 2.96501 6.19505 3.19178 6.19505 3.19178L6.01788 2.79966C6.01788 2.79966 5.86765 2.4458 5.35884 2.4458ZM5.41411 7.1456H5.43301C6.17426 7.1456 6.77473 7.79425 6.77473 8.59409C6.77473 9.39439 6.17426 10.0426 5.43301 10.0426C4.69175 10.0426 4.09129 9.39439 4.09129 8.59409C4.09082 7.80181 4.68042 7.15646 5.41411 7.1456ZM10.567 7.1456H10.5859C11.3196 7.15646 11.9087 7.80228 11.9087 8.59409C11.9087 9.39439 11.3082 10.0426 10.567 10.0426C9.82525 10.0426 9.22525 9.39439 9.22525 8.59409C9.22525 7.79425 9.82525 7.1456 10.567 7.1456Z" fill="black"/>
</g>
</svg>
